<svg xmlns="http://www.w3.org/2000/svg" viewBox="0 0 640 512">
    <!-- Font Awesome balance-scale icon -->
    <path fill="#D4AF37" d="M631.2 380l-64.8-212A32 32 0 0 0 535.8 144h-165l-2.8-51.2h36c11 0 20-9 20-20V32c0-11-9-20-20-20H236c-11 0-20 9-20 20v40.8c0 11 9 20 20 20h36l-2.8 51.2h-165c-14.7 0-27.6 10-30.6 24.1l-64.8 212C3.1 398.5 25.1 416 48 416h67.1l-66.2 60.5C36 488.3 45.1 512 64 512h512c18.9 0 28-23.7 15.1-35.5L524.9 416H592c22.9 0 44.9-17.5 39.2-36zM96 368L129 256.4c1.7-5.5 6.8-9.4 12.6-9.4H157l25.3 83.2h-111l24.7-62.2zm448 0L511 256.4c1.7-5.5 6.8-9.4 12.6-9.4h15.4l25.3 83.2h-111l24.7-62.2zM320 64c0-8.8 7.2-16 16-16h24V88h-24c-8.8 0-16-7.2-16-16z"/>
</svg>
